<?xml version="1.0" encoding="UTF-8"?>
<svg id="Layer_1" data-name="Layer 1" xmlns="http://www.w3.org/2000/svg" viewBox="0 0 1232 770">
  <defs>
    <style>
      .cls-1 {
        fill: #000c1a;
      }
    </style>
  </defs>
  <path class="cls-1" d="M823.98,647.21l24.3-74.19,24.56,74.19h-48.86ZM1165.23,693.77c-17.65,0-27.63-12.28-27.63-37.35v-6.4c0-22.77,10.49-36.58,28.65-36.58,14.84,0,26.86,10.49,26.86,39.65s-11,40.67-27.88,40.67ZM1099.49,770h37.86v-63.44c9.21,12.28,22.77,17.91,37.35,17.91,35.3,0,57.3-27.63,57.3-72.4s-18.93-69.33-54.74-69.33c-17.65,0-30.95,6.4-40.93,19.7v-15.6h-36.84v183.16ZM1016.09,693.77c-17.65,0-27.63-12.28-27.63-37.35v-6.4c0-22.77,10.49-36.58,28.65-36.58,14.84,0,26.86,10.49,26.86,39.65s-11,40.67-27.88,40.67ZM950.35,770h37.86v-63.44c9.21,12.28,22.77,17.91,37.35,17.91,35.3,0,57.3-27.63,57.3-72.4s-18.93-69.33-54.74-69.33c-17.65,0-30.95,6.4-40.93,19.7v-15.6h-36.84v183.16ZM760.02,720.37h40.42l13.56-40.42h68.81l13.56,40.42h41.7l-65.23-182.65h-47.33l-65.49,182.65ZM695.81,724.47c38.63,0,58.33-15.86,58.33-41.95s-12.28-36.84-47.58-42.72l-16.63-2.81c-14.33-2.3-18.67-6.91-18.67-14.33s5.63-13.3,21.74-13.3c15.09,0,21.23,5.63,23.79,19.95h35.3c-2.05-30.44-21.49-46.56-59.09-46.56-35.05,0-57.56,15.09-57.56,40.93s15.09,35.81,48.86,41.44l15.35,2.56c14.07,2.3,17.4,7.42,17.4,15.09,0,8.95-5.88,14.58-22,14.58s-25.33-6.14-26.86-20.21h-36.07c1.28,33.26,25.58,47.33,63.7,47.33ZM590.93,723.44c11.77,0,23.79-3.33,30.95-8.19v-28.65c-7.16,4.09-14.07,6.14-20.47,6.14-11,0-16.88-4.6-16.88-18.67v-57.56h37.35v-29.67h-37.35v-36.84h-33.77v20.47c0,11.51-2.81,16.37-14.33,16.37h-9.98v29.67h20.21v58.84c0,30.95,11.77,48.09,44.26,48.09ZM449.21,697.86c-12.28,0-19.19-5.37-19.19-14.84,0-10.74,7.93-15.86,26.35-18.93,10.23-1.79,18.16-3.84,24.3-8.19v13.05c0,17.65-12.53,28.91-31.47,28.91ZM439.49,724.47c19.7,0,33.51-8.19,44.26-20.21,1.28,6.4,3.58,11.77,6.65,16.12h35.81c-6.4-9.98-9.21-24.81-9.21-44.51v-42.72c0-31.72-16.88-50.4-56.79-50.4-35.3,0-56.02,14.58-60.12,46.56h34.53c2.05-12.28,9.47-19.44,24.3-19.44,13.81,0,21.74,5.63,21.74,15.35s-5.88,13.05-31.98,16.88c-28.4,4.09-54.49,14.33-54.49,42.98,0,25.58,18.16,39.4,45.28,39.4ZM254.53,720.37h37.86v-78.28c0-9.21,2.3-13.56,7.93-19.19,5.63-5.63,13.05-8.7,20.98-8.7,12.53,0,19.19,6.91,19.19,23.79v82.37h37.86v-89.53c0-30.95-15.35-48.09-44.26-48.09-14.84,0-28.65,4.6-41.7,19.95v-64.98h-37.86v182.65ZM49.12,720.37h41.7l30.19-131.74,30.7,131.74h42.21l48.35-182.65h-41.95l-28.65,134.81-30.7-133.79h-37.86l-31.21,134.3-28.65-135.33H0l49.12,182.65Z"/>
  <g>
    <path class="cls-1" d="M616,0c-108.36,0-196.2,87.84-196.2,196.2,0,35.65,9.51,69.07,26.13,97.88l-26.13,98.31,101.93-24.09c27.98,15.36,60.1,24.09,94.27,24.09,108.36,0,196.2-87.84,196.2-196.2S724.36,0,616,0ZM616,357.25c-32.79,0-63.29-9.8-88.74-26.63l-60.22,15.34,16.89-57.56c-18.27-26.12-28.99-57.91-28.99-92.21,0-88.95,72.11-161.05,161.05-161.05s161.05,72.11,161.05,161.05-72.11,161.05-161.05,161.05Z"/>
    <path class="cls-1" d="M661.97,222.1l47.47,22.38c2.18,1.03,3.58,3.24,3.38,5.64-.51,6.25-3.02,18.76-14.24,29.99-31.68,31.68-88.56-4.16-90.87-5.55-13.99-7.51-27.28-17.57-39.89-30.17-12.6-12.6-22.66-25.9-30.17-39.89-1.39-2.31-37.23-59.19-5.55-90.87,11.22-11.22,23.74-13.73,29.99-14.24,2.4-.2,4.61,1.2,5.64,3.38l22.38,47.47c1.06,2.25.59,4.92-1.16,6.67l-16.68,16.68c-3.61,3.61-4.67,9.22-2.18,13.68,6.08,10.92,14.27,21.43,23.76,31.1,9.67,9.48,20.18,17.67,31.1,23.76,4.46,2.49,10.07,1.43,13.68-2.18l16.68-16.68c1.76-1.76,4.43-2.22,6.67-1.16Z"/>
  </g>
</svg>